<svg xmlns="http://www.w3.org/2000/svg" viewBox="0 0 1024 1024">
  <path d="M818.573605 928.04075V438.884571H205.418395v489.156179h613.15521z m0-585.107429c27.759783 0 51.919594 9.319927 72.407434 28.055781s30.615761 41.367677 30.615761 67.887469v489.156179c0 26.519793-10.23992 49.167616-30.72776 67.887469-20.375841 18.743854-44.535652 28.063781-72.295435 28.063781H205.418395c-27.751783 0-51.919594-9.319927-72.391434-28.063781a88.799306 88.799306 0 0 1-30.623761-67.887469V438.884571c0-26.623792 10.23992-49.151616 30.71976-67.887469 20.375841-18.735854 44.543652-28.055781 72.295435-28.055781l464.084375-0.016V244.998086c-1.30399-39.271693-10.663917-58.287545-19.703847-75.983406-18.295857-30.871759-39.559691-47.903626-57.175553-58.223546-24.135811-11.751908-37.951704-19.623847-77.687393-20.943836-35.927719 0.815994-56.799556 8.519933-81.647362 23.327818-28.15978 16.69587-58.527543 56.31956-58.527543 56.31956L290.001734 121.743049c22.935821-37.479707 53.967578-67.167475 93.183272-88.983305C422.608698 10.959914 465.512363 0 512 0c46.591636 0 89.503301 10.19192 128.718994 31.99975 39.319693 21.80783 70.34345 52.271592 93.183272 89.751299 22.935821 37.375708 34.407731 78.335388 34.407732 122.87904v98.303232h50.263607zM512 781.713893a101.375208 101.375208 0 0 1-72.399434-29.167772 92.399278 92.399278 0 0 1-30.615761-69.12746c0-26.527793 10.23992-49.559613 30.71976-69.023461A101.423208 101.423208 0 0 1 512 585.107429a101.383208 101.383208 0 0 1 72.399434 29.287771c20.47984 19.463848 30.615761 42.495668 30.615761 69.023461 0 26.623792-10.23192 49.559613-30.71976 69.12746A101.439208 101.439208 0 0 1 512 781.713893z" fill="#ffffff"/>
</svg>
