<svg xmlns="http://www.w3.org/2000/svg" width="128" height="128" viewBox="0 0 1024 1024">
  <path d="M913.565122 467.878603a402.464508 402.464508 0 0 0-354.721185-354.580317V70.433862h-90.978879v42.891514A402.440127 402.440127 0 0 0 113.506878 467.878603H70.433862V558.865608h43.073016a402.285714 402.285714 0 0 0 354.35818 354.572191V956.275132h90.978879v-42.802116a402.364275 402.364275 0 0 0 354.73473-354.607408H956.275132v-90.987005h-42.71001z m-207.934307 0V558.865608h0.444275v0.024381h115.470899a311.030519 311.030519 0 0 1-262.539513 262.471789V705.964021h-0.162539v-0.319661h-90.978879v115.674074a311.049481 311.049481 0 0 1-262.325502-262.44199l115.538624-0.024381v-90.897608l-5.759323-0.075852H205.539556a311.182222 311.182222 0 0 1 262.325502-262.431153v115.633439h90.978879v-0.195048h0.162539V205.412233a311.168677 311.168677 0 0 1 262.542222 262.463661h-115.917883z" fill="#25313C"/>
</svg>
