<svg xmlns="http://www.w3.org/2000/svg" width="128" height="128" viewBox="0 0 1024 1024" fill="#20C997">
  <path d="M469.333333 128a42.666667 42.666667 0 0 1 0 85.333333H213.333333v597.333334h597.333334v-256l0.298666-4.992A42.666667 42.666667 0 0 1 896 554.666667v256a85.333333 85.333333 0 0 1-85.333333 85.333333H213.333333a85.333333 85.333333 0 0 1-85.333333-85.333333V213.333333a85.333333 85.333333 0 0 1 85.333333-85.333333z"/>
  <path d="M384 256h256a42.666667 42.666667 0 1 1 0 85.333333H384a42.666667 42.666667 0 0 1 0-85.333333z"/>
  <path d="M384 384h256a42.666667 42.666667 0 1 1 0 85.333333H384a42.666667 42.666667 0 0 1 0-85.333333z"/>
  <path d="M384 512h170.666667a42.666667 42.666667 0 1 1 0 85.333333H384a42.666667 42.666667 0 0 1 0-85.333333z"/>
</svg>
