<svg xmlns="http://www.w3.org/2000/svg" width="128" height="128" viewBox="0 0 1024 1024">
  <path d="M161.933635 982.016249A88.059387 88.059387 0 0 1 73.142857 894.932048V87.087126A88.059387 88.059387 0 0 1 161.933635 0.002926h396.267243v71.042374H161.933635a16.090586 16.090586 0 0 0-15.846789 16.041826v807.844922a16.090586 16.090586 0 0 0 15.846789 16.041827v71.042374zM774.984951 112.978341H238.92465a48.759351 48.759351 0 0 0-50.856003 45.492474v819.986001A48.759351 48.759351 0 0 0 238.92465 1023.94929h661.030517A48.759351 48.759351 0 0 0 950.81117 978.456816V286.51287zM442.39742 892.299043a17.9922 17.9922 0 0 1-18.235997 17.748404H358.872652a17.9922 17.9922 0 0 1-18.235997-17.748404v-101.126893a17.9922 17.9922 0 0 1 18.235997-17.748404H424.210182a17.9922 17.9922 0 0 1 18.235997 17.748404V892.299043z m178.069149 3.120599a15.066639 15.066639 0 0 1-15.212918 14.627805H533.723684a15.115399 15.115399 0 0 1-15.212918-14.627805V423.770443a15.115399 15.115399 0 0 1 15.212918-14.627806h71.529967a15.115399 15.115399 0 0 1 15.212918 14.627806v471.600439z m177.92287 3.900748a11.068373 11.068373 0 0 1-11.21465 10.727057h-79.380223a11.068373 11.068373 0 0 1-11.214651-10.922095v-251.451971a11.068373 11.068373 0 0 1 11.214651-10.922095h79.331463a11.117132 11.117132 0 0 1 11.214651 10.922095v251.647009z" fill="#333333"/>
</svg>
