<svg xmlns="http://www.w3.org/2000/svg" width="128" height="128" viewBox="0 0 1024 1024">
  <path d="M777.8816 103.5776H256.3584a160.3072 160.3072 0 0 0-160.1536 160.1536V629.76a160.3072 160.3072 0 0 0 160.1536 160.1024h521.5232A160.3072 160.3072 0 0 0 938.0352 629.76V263.7312a160.3072 160.3072 0 0 0-160.1536-160.1536zM876.5952 629.76a98.7648 98.7648 0 0 1-98.7136 98.6624H256.3584A98.7648 98.7648 0 0 1 157.6448 629.76V263.7312a98.816 98.816 0 0 1 98.7136-98.7136h521.5232a98.816 98.816 0 0 1 98.7136 98.7136zM746.2912 838.5024H287.9488a30.72 30.72 0 0 0 0 61.44h458.3424a30.72 30.72 0 0 0 0-61.44z" fill="#20C997"/>
  <path d="M681.9328 376.6272l-95.0784 96.6656-87.9104-86.1184a56.8832 56.8832 0 0 0-80.2816 0.8704l-110.1824 112.64a30.72 30.72 0 0 0 43.8784 43.008L459.264 434.3808l87.9104 86.0672a56.8832 56.8832 0 0 0 80.2304-0.7168L725.7088 419.84a30.72 30.72 0 1 0-43.776-43.1104z" fill="#20C997"/>
</svg>
