<svg xmlns="http://www.w3.org/2000/svg" viewBox="0 0 96 96" fill="none">
  <path d="M29 56h34c10 0 18-6.9 18-16s-7.2-15.7-16.3-16C61 14.8 52.4 8 42.4 8 31.8 8 23 16.8 23 27.4c0 .5 0 1 .1 1.6C15.1 30.8 10 37.2 10 45c0 6.1 4.9 11 11 11h8z" fill="#EAF2F8"/>
  <path d="M29 56h34c10 0 18-6.9 18-16s-7.2-15.7-16.3-16C61 14.8 52.4 8 42.4 8 31.8 8 23 16.8 23 27.4c0 .5 0 1 .1 1.6C15.1 30.8 10 37.2 10 45c0 6.1 4.9 11 11 11h8z" stroke="#D7E2EA" stroke-width="3" stroke-linejoin="round"/>
  <g stroke="#6CB8FF" stroke-width="5" stroke-linecap="round">
    <path d="M34 72l-4 8"/>
    <path d="M48 72l-4 8"/>
    <path d="M62 72l-4 8"/>
  </g>
</svg>
